<svg width="48" height="48" viewBox="0 0 48 48" fill="none" xmlns="http://www.w3.org/2000/svg">
<rect x="0.5" y="0.5" width="47" height="47" rx="23.5" stroke="#E2E3E6"/>
<g clip-path="url(#clip0_37_372)">
<path d="M32.3332 28.0999V30.5999C32.3341 30.832 32.2866 31.0617 32.1936 31.2744C32.1006 31.487 31.9643 31.6779 31.7933 31.8348C31.6222 31.9917 31.4203 32.1112 31.2005 32.1855C30.9806 32.2599 30.7477 32.2875 30.5165 32.2666C27.9522 31.988 25.489 31.1117 23.3249 29.7083C21.3114 28.4288 19.6043 26.7217 18.3249 24.7083C16.9165 22.5343 16.0401 20.0591 15.7665 17.4833C15.7457 17.2528 15.7731 17.0206 15.8469 16.8013C15.9208 16.582 16.0395 16.3805 16.1955 16.2096C16.3515 16.0387 16.5414 15.9022 16.753 15.8087C16.9647 15.7152 17.1935 15.6668 17.4249 15.6666H19.9249C20.3293 15.6626 20.7214 15.8058 21.028 16.0695C21.3346 16.3332 21.5349 16.6995 21.5915 17.0999C21.697 17.9 21.8927 18.6855 22.1749 19.4416C22.287 19.7399 22.3112 20.064 22.2448 20.3757C22.1783 20.6873 22.0239 20.9733 21.7999 21.1999L20.7415 22.2583C21.9278 24.3445 23.6552 26.072 25.7415 27.2583L26.7999 26.1999C27.0264 25.9759 27.3125 25.8215 27.6241 25.755C27.9358 25.6885 28.2599 25.7128 28.5582 25.8249C29.3143 26.107 30.0998 26.3027 30.8999 26.4083C31.3047 26.4654 31.6744 26.6693 31.9386 26.9812C32.2029 27.2931 32.3433 27.6912 32.3332 28.0999Z" stroke="black" stroke-width="2" stroke-linecap="round" stroke-linejoin="round"/>
</g>
<defs>
<clipPath id="clip0_37_372">
<rect width="20" height="20" fill="white" transform="translate(14 14)"/>
</clipPath>
</defs>
</svg>
