<svg width="200" height="69" viewBox="0 0 200 69" fill="none" xmlns="http://www.w3.org/2000/svg">
<path fill-rule="evenodd" clip-rule="evenodd" d="M34.833 26.2191C34.7429 24.8871 35.1815 21.5957 37.6596 19.1784L37.4363 18.9495C34.9936 21.3322 34.467 24.526 34.5043 26.0298C34.109 25.8269 33.6915 25.9048 33.2941 26.2184C33.3179 25.3896 33.1853 24.1522 32.7187 22.8726C32.2091 21.4753 31.2978 20.0188 29.7472 18.9933L29.5708 19.26C31.0506 20.2387 31.9258 21.6317 32.4182 22.9821C32.9112 24.3342 33.0172 25.6347 32.9649 26.4118L33.0733 26.4191C33.0623 26.4304 33.0514 26.4418 33.0405 26.4535C32.6608 26.8592 32.5293 27.4018 32.6476 27.8754C32.0522 28.1931 31.6823 28.6658 31.7117 29.1725C31.7611 30.0272 32.9277 30.655 34.3172 30.5746C35.7068 30.4942 36.7932 29.7361 36.7438 28.8814C36.7118 28.3294 36.214 27.872 35.491 27.639C35.5928 27.0901 35.2145 26.6267 34.8158 26.2534C34.8045 26.2429 34.7932 26.2326 34.7818 26.2225L34.833 26.2191ZM42.3818 36.0236L44.3744 36.4103L44.4658 35.9393L42.5763 35.5726L41.1076 33.1951L40.9921 33.0081L40.7957 33.1069L38.2823 34.3714C38.0822 33.1744 37.827 32.1279 37.5794 31.3452L40.7986 27.2908L40.5482 27.0919L37.4588 30.9828C37.1714 30.1641 36.909 29.739 36.7746 29.8941C36.2297 30.523 35.0863 31.0152 34.5827 31.1827L35.2502 47.9613C37.7188 46.0718 38.567 42.6831 38.6521 39.3447L40.6226 40.0416L40.551 40.4367L39.9592 40.4168L39.9512 40.6565L40.5078 40.6752L40.4636 40.9191L39.8902 40.8999L39.8822 41.1396L40.4204 41.1577L40.3762 41.4016L39.8212 41.383L39.8132 41.6227L40.333 41.6402L40.2481 42.1088L39.7598 42.0924L39.7518 42.3322L40.2049 42.3474L40.1235 42.7967L39.556 42.7777L39.548 43.0174L40.0803 43.0353L39.969 43.6497L39.4147 43.6311L39.4067 43.8708L39.9258 43.8882L39.726 44.991L39.7179 45.0359L39.7268 45.0806L40.2355 47.6376L40.706 47.544L40.2062 45.0317L40.4104 43.9045L40.6809 43.9136L40.6889 43.6738L40.4536 43.6659L40.5649 43.0515L40.8222 43.0601L40.8302 42.8204L40.6081 42.813L40.6895 42.3636L41.026 42.3749L41.034 42.1352L40.7327 42.1251L40.8176 41.6564L41.0874 41.6655L41.0954 41.4258L40.8608 41.4179L40.905 41.174L41.1564 41.1824L41.1644 40.9427L40.9482 40.9354L40.9924 40.6915L41.2254 40.6993L41.2334 40.4596L41.0356 40.4529L41.131 39.9263L41.1674 39.7255L40.975 39.6574L38.6593 38.8384C38.6637 37.3708 38.5283 35.9282 38.3264 34.6433L38.4239 34.8371L40.815 33.6342L42.2234 35.9142L42.2786 36.0036L42.3818 36.0236ZM28.2673 33.0122L30.7616 34.0808C30.8933 32.7946 31.003 32.0414 31.1555 31.4883L27.1245 28.4708L27.3161 28.2148L31.2572 31.1649C31.3885 30.7978 31.5522 30.5059 31.7766 30.144L34.0704 31.0865L34.913 48.029C33.6062 47.9551 31.1418 46.1028 30.6052 39.6082L28.9914 40.4432L29.0774 40.8488L29.4378 40.8212L29.4561 41.0604L29.1276 41.0855L29.1813 41.3387L29.5161 41.3276L29.5241 41.5673L29.2319 41.577L29.278 41.7944L29.6024 41.7494L29.6354 41.987L29.3278 42.0297L29.4208 42.4679L29.7372 42.424L29.7702 42.6616L29.4707 42.7032L29.5975 43.301L29.822 43.2698L29.855 43.5074L29.6473 43.5362L29.7595 44.0654L30.0453 44.0257L30.0783 44.2633L29.8094 44.3006L30.0256 45.32L30.0338 45.3587L30.0292 45.398L29.7195 48.0104L29.2431 47.9539L29.5481 45.3808L29.3331 44.3667L29.0084 44.4118L28.9754 44.1742L29.2832 44.1315L29.171 43.6024L28.7851 43.6559L28.7521 43.4183L29.1211 43.3671L28.9943 42.7693L28.7003 42.8101L28.6673 42.5725L28.9444 42.5341L28.8515 42.0958L28.5655 42.1355L28.5326 41.8979L28.8016 41.8605L28.7449 41.5931L28.3939 41.6047L28.386 41.365L28.6943 41.3548L28.6451 41.1225L28.1584 41.1598L28.14 40.9206L28.5949 40.8858L28.4842 40.3639L28.4463 40.1851L28.6086 40.1011L30.5671 39.0878C30.5231 38.4045 30.4998 37.6727 30.5004 36.8895C30.5809 35.9827 30.6494 35.2236 30.7118 34.5814L28.2739 33.5369L26.9624 35.8038L26.9209 35.8754L26.8441 35.9062L25.0018 36.6459L24.8231 36.2007L26.5886 35.4919L27.9652 33.1125L28.0718 32.9284L28.2673 33.0122Z" fill="black"/>
<circle cx="34.5001" cy="34.5" r="23.1881" transform="rotate(43.1078 34.5001 34.5)" stroke="#A52026" stroke-width="2.44085"/>
<path d="M18.1769 49.1919L46.6254 16.2102L48.8065 17.9562L20.2103 50.9458L18.1769 49.1919Z" fill="#A52026" stroke="#F5F5F5" stroke-width="0.244085"/>
<path d="M83.9946 31.5212C83.9946 32.6906 83.8585 33.6438 83.5861 34.3807C83.3298 35.1016 82.9213 35.6543 82.3606 36.0388C81.8159 36.4233 81.1191 36.6876 80.27 36.8318C79.4209 36.96 78.4037 37.024 77.2182 37.024C76.4973 37.024 75.8085 37.024 75.1516 37.024C74.4948 37.024 73.8781 37.016 73.3013 37C72.7246 37 72.18 37 71.6673 37C71.1707 37 70.7061 37 70.2736 37V27.5322C70.2736 26.9715 70.3857 26.571 70.61 26.3307C70.8343 26.0904 71.2508 25.9623 71.8596 25.9463C72.2761 25.9463 72.7246 25.9463 73.2052 25.9463C73.7018 25.9302 74.1985 25.9222 74.6951 25.9222C75.2077 25.9222 75.7123 25.9222 76.209 25.9222C76.7216 25.9222 77.1942 25.9222 77.6267 25.9222C78.7641 25.9383 79.7333 26.0264 80.5343 26.1866C81.3353 26.3307 81.9921 26.6031 82.5048 27.0036C83.0174 27.3881 83.3939 27.9488 83.6342 28.6857C83.8745 29.4066 83.9946 30.3517 83.9946 31.5212ZM74.2145 35.0055C74.3747 35.0055 74.5589 35.0055 74.7672 35.0055C74.9914 35.0055 75.2237 35.0135 75.464 35.0296C75.7203 35.0296 75.9687 35.0296 76.209 35.0296C76.4493 35.0296 76.6575 35.0296 76.8337 35.0296C77.3944 35.0296 77.875 34.9815 78.2755 34.8854C78.676 34.7893 78.9964 34.613 79.2367 34.3567C79.477 34.1004 79.6532 33.74 79.7654 33.2754C79.8775 32.8108 79.9336 32.2261 79.9336 31.5212C79.9336 30.5119 79.8295 29.751 79.6212 29.2384C79.429 28.7257 79.1005 28.3813 78.636 28.2051C78.1874 28.0128 77.5546 27.9167 76.7376 27.9167C76.5454 27.9167 76.2971 27.9167 75.9927 27.9167C75.7043 27.9167 75.416 27.9247 75.1276 27.9407C74.8393 27.9407 74.5909 27.9488 74.3827 27.9648C74.3346 28.0449 74.2946 28.141 74.2625 28.2531C74.2305 28.3653 74.2145 28.5255 74.2145 28.7337V35.0055ZM86.1164 37V27.1958C86.1164 26.6832 86.2045 26.3468 86.3807 26.1866C86.5569 26.0264 86.9014 25.9463 87.414 25.9463H98.5158V28.0128H90.0573V30.3197H97.7468V32.3622H90.0573V34.9334H98.5158V37H86.1164ZM105.063 34.9094H112.536C112.536 35.406 112.52 35.7985 112.488 36.0869C112.472 36.3592 112.408 36.5675 112.296 36.7116C112.2 36.8398 112.032 36.9199 111.792 36.9519C111.567 36.984 111.247 37 110.83 37H99.6084V34.8854C99.6404 34.8533 99.7766 34.7172 100.017 34.4769C100.257 34.2366 100.578 33.9242 100.978 33.5397C101.379 33.1392 101.819 32.7067 102.3 32.2421C102.78 31.7615 103.269 31.2809 103.766 30.8003C104.262 30.3197 104.727 29.8711 105.159 29.4546C105.592 29.0381 105.96 28.6937 106.265 28.4213C106.361 28.3252 106.465 28.2451 106.577 28.181C106.705 28.117 106.793 28.0689 106.841 28.0369H99.9688C99.9688 27.5082 99.9849 27.0917 100.017 26.7873C100.049 26.4829 100.153 26.2667 100.329 26.1385C100.506 26.0103 100.81 25.9463 101.242 25.9463H112.32C112.32 25.9623 112.312 26.0904 112.296 26.3307C112.296 26.555 112.256 26.8434 112.176 27.1958C112.096 27.5322 111.952 27.8927 111.743 28.2772C111.551 28.6616 111.255 29.0221 110.854 29.3585L105.424 34.7893L105.063 34.9094Z" fill="#A52026"/>
<path d="M114.394 37V27.1958C114.394 26.6832 114.482 26.3468 114.658 26.1866C114.834 26.0264 115.179 25.9463 115.691 25.9463H126.793V28.0128H118.335V30.3197H126.024V32.3622H118.335V34.9334H126.793V37H114.394ZM128.943 37V27.4121C128.943 27.0436 128.959 26.7553 128.991 26.547C129.039 26.3388 129.151 26.1866 129.328 26.0904C129.504 25.9943 129.808 25.9463 130.241 25.9463H141.366V28.0128H132.908V30.3197H140.598V32.3622H132.908V37H128.943ZM143.328 37V27.4121C143.328 27.0436 143.344 26.7553 143.376 26.547C143.424 26.3388 143.536 26.1866 143.713 26.0904C143.889 25.9943 144.193 25.9463 144.626 25.9463H155.752V28.0128H147.293V30.3197H154.983V32.3622H147.293V37H143.328ZM157.713 37V27.1958C157.713 26.6832 157.801 26.3468 157.977 26.1866C158.154 26.0264 158.498 25.9463 159.011 25.9463H170.113V28.0128H161.654V30.3197H169.344V32.3622H161.654V34.9334H170.113V37H157.713ZM171.614 31.4731C171.614 30.3517 171.742 29.4306 171.998 28.7097C172.254 27.9728 172.687 27.3961 173.296 26.9796C173.905 26.563 174.714 26.2667 175.723 26.0904C176.748 25.9142 178.014 25.8261 179.52 25.8261C180.16 25.8261 180.761 25.8501 181.322 25.8982C181.898 25.9302 182.499 25.9943 183.124 26.0904C183.797 26.1705 184.237 26.3307 184.446 26.571C184.654 26.8113 184.758 27.1398 184.758 27.5563V28.7818C184.293 28.6056 183.749 28.4614 183.124 28.3493C182.515 28.2371 181.906 28.157 181.298 28.109C180.689 28.0449 180.152 28.0128 179.688 28.0128C178.743 28.0128 177.966 28.0929 177.357 28.2531C176.764 28.4133 176.332 28.7417 176.059 29.2384C175.787 29.735 175.651 30.4879 175.651 31.4972C175.651 32.4584 175.787 33.1873 176.059 33.6839C176.332 34.1805 176.788 34.5169 177.429 34.6931C178.07 34.8694 178.919 34.9575 179.976 34.9575C180.425 34.9575 180.897 34.9334 181.394 34.8854C181.906 34.8213 182.435 34.7412 182.98 34.6451C183.54 34.549 184.133 34.4288 184.758 34.2846V35.414C184.758 35.7985 184.646 36.1189 184.422 36.3752C184.197 36.6155 183.741 36.7837 183.052 36.8799C182.443 36.976 181.834 37.04 181.226 37.0721C180.633 37.1041 180.016 37.1201 179.375 37.1201C177.853 37.1201 176.588 37.04 175.579 36.8799C174.585 36.7036 173.792 36.4073 173.2 35.9907C172.623 35.5742 172.214 35.0055 171.974 34.2846C171.734 33.5477 171.614 32.6105 171.614 31.4731ZM185.898 25.9463H199.162V28.0369H194.524V35.7024C194.524 36.215 194.444 36.5595 194.284 36.7357C194.124 36.9119 193.763 37 193.203 37H190.559V28.0369H185.898V25.9463Z" fill="black"/>
<path d="M74.9743 51.2013L74.8953 53.416H73.9942V52H73.5729V51.2013H74.9743ZM69.6583 52V46.0081H70.5243V51.2159H73.4149V46.0081H74.2838V52H69.6583ZM77.8327 52.0907C77.39 52.0907 77.0086 51.9961 76.6888 51.8069C76.3708 51.6158 76.1251 51.3476 75.9515 51.0023C75.7799 50.6551 75.694 50.2485 75.694 49.7823C75.694 49.322 75.7799 48.9163 75.9515 48.5652C76.1251 48.2141 76.3669 47.9401 76.6771 47.7431C76.9891 47.5461 77.3539 47.4476 77.7713 47.4476C78.0248 47.4476 78.2706 47.4895 78.5086 47.5734C78.7465 47.6573 78.9601 47.7889 79.1493 47.9684C79.3385 48.1478 79.4877 48.3809 79.5969 48.6676C79.7062 48.9524 79.7608 49.2986 79.7608 49.7062V50.0164H76.1885V49.361H78.9035C78.9035 49.1309 78.8567 48.927 78.7631 48.7495C78.6695 48.5701 78.5378 48.4287 78.3681 48.3253C78.2004 48.2219 78.0034 48.1702 77.7771 48.1702C77.5314 48.1702 77.3168 48.2307 77.1335 48.3516C76.9521 48.4706 76.8117 48.6267 76.7122 48.8198C76.6147 49.0109 76.5659 49.2186 76.5659 49.4429V49.9549C76.5659 50.2553 76.6186 50.5108 76.7239 50.7215C76.8312 50.9321 76.9804 51.093 77.1715 51.2042C77.3627 51.3134 77.586 51.368 77.8415 51.368C78.0073 51.368 78.1585 51.3446 78.295 51.2978C78.4315 51.2491 78.5495 51.1769 78.649 51.0813C78.7485 50.9858 78.8245 50.8677 78.8772 50.7273L79.7052 50.8765C79.6389 51.1203 79.5199 51.3339 79.3482 51.5173C79.1786 51.6987 78.965 51.8401 78.7075 51.9415C78.452 52.041 78.1604 52.0907 77.8327 52.0907ZM83.777 49.3756V50.1334H81.3428V49.3756H83.777ZM81.5886 47.5061V52H80.7314V47.5061H81.5886ZM84.3885 47.5061V52H83.5342V47.5061H84.3885ZM85.0015 48.2609V47.5061H88.7932V48.2609H87.3274V52H86.4731V48.2609H85.0015ZM89.7184 53.6852V47.5061H90.5727V48.2346H90.6459C90.6966 48.141 90.7697 48.0327 90.8653 47.9099C90.9609 47.787 91.0935 47.6797 91.2632 47.588C91.4329 47.4944 91.6572 47.4476 91.9361 47.4476C92.2989 47.4476 92.6227 47.5393 92.9075 47.7226C93.1922 47.906 93.4156 48.1702 93.5774 48.5155C93.7413 48.8607 93.8232 49.2762 93.8232 49.7618C93.8232 50.2475 93.7423 50.6639 93.5804 51.0111C93.4185 51.3563 93.1961 51.6226 92.9133 51.8098C92.6305 51.9951 92.3077 52.0878 91.9449 52.0878C91.6718 52.0878 91.4485 52.0419 91.2749 51.9503C91.1033 51.8586 90.9687 51.7513 90.8712 51.6284C90.7736 51.5056 90.6985 51.3963 90.6459 51.3008H90.5932V53.6852H89.7184ZM90.5757 49.7531C90.5757 50.069 90.6215 50.346 90.7132 50.584C90.8048 50.8219 90.9375 51.0082 91.1111 51.1428C91.2847 51.2754 91.4973 51.3417 91.7489 51.3417C92.0102 51.3417 92.2287 51.2725 92.4042 51.134C92.5798 50.9936 92.7124 50.8034 92.8021 50.5635C92.8938 50.3236 92.9396 50.0534 92.9396 49.7531C92.9396 49.4566 92.8948 49.1903 92.8051 48.9543C92.7173 48.7183 92.5847 48.5321 92.4072 48.3955C92.2316 48.259 92.0122 48.1907 91.7489 48.1907C91.4953 48.1907 91.2808 48.2561 91.1052 48.3867C90.9316 48.5174 90.8 48.6998 90.7102 48.9339C90.6205 49.1679 90.5757 49.441 90.5757 49.7531ZM98.8766 52.0907C98.4417 52.0907 98.0672 51.9922 97.7532 51.7952C97.4411 51.5963 97.2012 51.3222 97.0334 50.9731C96.8657 50.6239 96.7818 50.2241 96.7818 49.7735C96.7818 49.3171 96.8677 48.9143 97.0393 48.5652C97.2109 48.2141 97.4528 47.9401 97.7649 47.7431C98.0769 47.5461 98.4446 47.4476 98.8679 47.4476C99.2092 47.4476 99.5135 47.511 99.7807 47.6378C100.048 47.7626 100.263 47.9381 100.427 48.1644C100.593 48.3906 100.692 48.6549 100.723 48.9573H99.8714C99.8246 48.7466 99.7173 48.5652 99.5496 48.4131C99.3838 48.2609 99.1614 48.1849 98.8825 48.1849C98.6387 48.1849 98.4251 48.2492 98.2418 48.378C98.0604 48.5047 97.919 48.6861 97.8175 48.9222C97.7161 49.1562 97.6654 49.4332 97.6654 49.7531C97.6654 50.0807 97.7151 50.3636 97.8146 50.6015C97.9141 50.8395 98.0545 51.0238 98.2359 51.1545C98.4193 51.2852 98.6348 51.3505 98.8825 51.3505C99.0483 51.3505 99.1985 51.3203 99.3331 51.2598C99.4696 51.1974 99.5837 51.1086 99.6754 50.9936C99.769 50.8785 99.8343 50.74 99.8714 50.5781H100.723C100.692 50.8687 100.597 51.1281 100.439 51.3563C100.281 51.5845 100.069 51.764 99.8041 51.8947C99.5408 52.0254 99.2316 52.0907 98.8766 52.0907ZM102.966 52.0995C102.681 52.0995 102.424 52.0468 102.194 51.9415C101.964 51.8342 101.781 51.6791 101.647 51.4763C101.514 51.2734 101.448 51.0248 101.448 50.7302C101.448 50.4767 101.496 50.268 101.594 50.1041C101.691 49.9403 101.823 49.8106 101.989 49.715C102.155 49.6194 102.34 49.5473 102.545 49.4985C102.75 49.4498 102.958 49.4127 103.171 49.3873C103.44 49.3561 103.658 49.3308 103.826 49.3113C103.994 49.2898 104.116 49.2557 104.192 49.2089C104.268 49.1621 104.306 49.086 104.306 48.9807V48.9602C104.306 48.7047 104.234 48.5067 104.09 48.3663C103.947 48.2258 103.735 48.1556 103.452 48.1556C103.157 48.1556 102.925 48.221 102.755 48.3516C102.588 48.4804 102.472 48.6237 102.407 48.7817L101.585 48.5945C101.683 48.3214 101.825 48.101 102.012 47.9333C102.201 47.7636 102.419 47.6407 102.665 47.5646C102.91 47.4866 103.169 47.4476 103.44 47.4476C103.619 47.4476 103.81 47.469 104.011 47.512C104.213 47.5529 104.403 47.629 104.578 47.7402C104.756 47.8513 104.901 48.0103 105.014 48.2171C105.127 48.4219 105.184 48.6881 105.184 49.0158V52H104.329V51.3856H104.294C104.238 51.4987 104.153 51.6099 104.04 51.7191C103.927 51.8284 103.781 51.9191 103.604 51.9912C103.426 52.0634 103.214 52.0995 102.966 52.0995ZM103.156 51.3973C103.398 51.3973 103.605 51.3495 103.776 51.2539C103.95 51.1584 104.082 51.0335 104.171 50.8795C104.263 50.7234 104.309 50.5566 104.309 50.3792V49.7999C104.278 49.8311 104.217 49.8603 104.128 49.8876C104.04 49.913 103.939 49.9354 103.826 49.9549C103.713 49.9725 103.603 49.9891 103.496 50.0047C103.388 50.0183 103.299 50.03 103.226 50.0398C103.057 50.0612 102.902 50.0973 102.761 50.148C102.623 50.1987 102.512 50.2719 102.428 50.3675C102.346 50.4611 102.305 50.5859 102.305 50.7419C102.305 50.9584 102.385 51.1223 102.545 51.2335C102.705 51.3427 102.909 51.3973 103.156 51.3973ZM109.395 49.3756V50.1334H106.96V49.3756H109.395ZM107.206 47.5061V52H106.349V47.5061H107.206ZM110.006 47.5061V52H109.152V47.5061H110.006ZM112.034 50.7741L114.014 47.5061H114.956V52H114.099V48.7291L112.127 52H111.176V47.5061H112.034V50.7741ZM115.575 48.2609V47.5061H119.367V48.2609H117.901V52H117.047V48.2609H115.575ZM121.391 52.0995C121.106 52.0995 120.848 52.0468 120.618 51.9415C120.388 51.8342 120.206 51.6791 120.071 51.4763C119.939 51.2734 119.872 51.0248 119.872 50.7302C119.872 50.4767 119.921 50.268 120.019 50.1041C120.116 49.9403 120.248 49.8106 120.414 49.715C120.579 49.6194 120.765 49.5473 120.969 49.4985C121.174 49.4498 121.383 49.4127 121.596 49.3873C121.865 49.3561 122.083 49.3308 122.251 49.3113C122.419 49.2898 122.541 49.2557 122.617 49.2089C122.693 49.1621 122.731 49.086 122.731 48.9807V48.9602C122.731 48.7047 122.659 48.5067 122.514 48.3663C122.372 48.2258 122.159 48.1556 121.876 48.1556C121.582 48.1556 121.35 48.221 121.18 48.3516C121.012 48.4804 120.896 48.6237 120.832 48.7817L120.01 48.5945C120.107 48.3214 120.25 48.101 120.437 47.9333C120.626 47.7636 120.844 47.6407 121.089 47.5646C121.335 47.4866 121.594 47.4476 121.865 47.4476C122.044 47.4476 122.234 47.469 122.435 47.512C122.638 47.5529 122.827 47.629 123.003 47.7402C123.18 47.8513 123.326 48.0103 123.439 48.2171C123.552 48.4219 123.608 48.6881 123.608 49.0158V52H122.754V51.3856H122.719C122.662 51.4987 122.578 51.6099 122.464 51.7191C122.351 51.8284 122.206 51.9191 122.029 51.9912C121.851 52.0634 121.638 52.0995 121.391 52.0995ZM121.581 51.3973C121.823 51.3973 122.03 51.3495 122.201 51.2539C122.375 51.1584 122.506 51.0335 122.596 50.8795C122.688 50.7234 122.734 50.5566 122.734 50.3792V49.7999C122.702 49.8311 122.642 49.8603 122.552 49.8876C122.464 49.913 122.364 49.9354 122.251 49.9549C122.138 49.9725 122.028 49.9891 121.92 50.0047C121.813 50.0183 121.723 50.03 121.651 50.0398C121.481 50.0612 121.326 50.0973 121.186 50.148C121.047 50.1987 120.936 50.2719 120.852 50.3675C120.77 50.4611 120.73 50.5859 120.73 50.7419C120.73 50.9584 120.809 51.1223 120.969 51.2335C121.129 51.3427 121.333 51.3973 121.581 51.3973ZM124.774 53.6852V47.5061H125.628V48.2346H125.701C125.752 48.141 125.825 48.0327 125.92 47.9099C126.016 47.787 126.149 47.6797 126.318 47.588C126.488 47.4944 126.712 47.4476 126.991 47.4476C127.354 47.4476 127.678 47.5393 127.963 47.7226C128.247 47.906 128.471 48.1702 128.633 48.5155C128.796 48.8607 128.878 49.2762 128.878 49.7618C128.878 50.2475 128.797 50.6639 128.636 51.0111C128.474 51.3563 128.251 51.6226 127.968 51.8098C127.686 51.9951 127.363 52.0878 127 52.0878C126.727 52.0878 126.504 52.0419 126.33 51.9503C126.158 51.8586 126.024 51.7513 125.926 51.6284C125.829 51.5056 125.754 51.3963 125.701 51.3008H125.648V53.6852H124.774ZM125.631 49.7531C125.631 50.069 125.677 50.346 125.768 50.584C125.86 50.8219 125.993 51.0082 126.166 51.1428C126.34 51.2754 126.552 51.3417 126.804 51.3417C127.065 51.3417 127.284 51.2725 127.459 51.134C127.635 50.9936 127.768 50.8034 127.857 50.5635C127.949 50.3236 127.995 50.0534 127.995 49.7531C127.995 49.4566 127.95 49.1903 127.86 48.9543C127.772 48.7183 127.64 48.5321 127.462 48.3955C127.287 48.259 127.067 48.1907 126.804 48.1907C126.55 48.1907 126.336 48.2561 126.16 48.3867C125.987 48.5174 125.855 48.6998 125.765 48.9339C125.676 49.1679 125.631 49.441 125.631 49.7531ZM132.904 49.3756V50.1334H130.47V49.3756H132.904ZM130.716 47.5061V52H129.858V47.5061H130.716ZM133.516 47.5061V52H132.661V47.5061H133.516ZM135.344 49.0509H136.649C137.199 49.0509 137.622 49.1874 137.919 49.4605C138.215 49.7335 138.364 50.0856 138.364 50.5167C138.364 50.7975 138.297 51.0501 138.165 51.2744C138.032 51.4987 137.838 51.6762 137.582 51.8069C137.327 51.9356 137.016 52 136.649 52H134.686V47.5061H135.543V51.2452H136.649C136.901 51.2452 137.107 51.1798 137.269 51.0491C137.431 50.9165 137.512 50.7478 137.512 50.543C137.512 50.3265 137.431 50.15 137.269 50.0134C137.107 49.875 136.901 49.8057 136.649 49.8057H135.344V49.0509ZM139.001 52V47.5061H139.876V52H139.001ZM141.741 47.5061L142.732 49.2557L143.733 47.5061H144.69L143.288 49.7531L144.701 52H143.745L142.732 50.3206L141.723 52H140.763L142.162 49.7531L140.781 47.5061H141.741ZM148.321 53.6852C148.19 53.6852 148.072 53.6745 147.964 53.653C147.857 53.6335 147.777 53.6121 147.724 53.5887L147.935 52.8719C148.095 52.9148 148.237 52.9333 148.362 52.9275C148.487 52.9216 148.597 52.8748 148.693 52.787C148.79 52.6992 148.876 52.5559 148.95 52.3569L149.058 52.0585L147.414 47.5061H148.35L149.489 50.9936H149.535L150.673 47.5061H151.613L149.761 52.5998C149.675 52.8338 149.566 53.0318 149.433 53.1937C149.3 53.3575 149.142 53.4804 148.959 53.5623C148.776 53.6443 148.563 53.6852 148.321 53.6852ZM154.175 52.0907C153.74 52.0907 153.365 51.9922 153.051 51.7952C152.739 51.5963 152.499 51.3222 152.332 50.9731C152.164 50.6239 152.08 50.2241 152.08 49.7735C152.08 49.3171 152.166 48.9143 152.337 48.5652C152.509 48.2141 152.751 47.9401 153.063 47.7431C153.375 47.5461 153.743 47.4476 154.166 47.4476C154.507 47.4476 154.812 47.511 155.079 47.6378C155.346 47.7626 155.562 47.9381 155.725 48.1644C155.891 48.3906 155.99 48.6549 156.021 48.9573H155.17C155.123 48.7466 155.015 48.5652 154.848 48.4131C154.682 48.2609 154.46 48.1849 154.181 48.1849C153.937 48.1849 153.723 48.2492 153.54 48.378C153.359 48.5047 153.217 48.6861 153.116 48.9222C153.014 49.1562 152.964 49.4332 152.964 49.7531C152.964 50.0807 153.013 50.3636 153.113 50.6015C153.212 50.8395 153.353 51.0238 153.534 51.1545C153.717 51.2852 153.933 51.3505 154.181 51.3505C154.346 51.3505 154.497 51.3203 154.631 51.2598C154.768 51.1974 154.882 51.1086 154.974 50.9936C155.067 50.8785 155.132 50.74 155.17 50.5781H156.021C155.99 50.8687 155.895 51.1281 155.737 51.3563C155.579 51.5845 155.368 51.764 155.102 51.8947C154.839 52.0254 154.53 52.0907 154.175 52.0907ZM156.602 52L156.599 51.2422H156.76C156.885 51.2422 156.99 51.2159 157.073 51.1632C157.159 51.1086 157.229 51.017 157.284 50.8882C157.339 50.7595 157.381 50.582 157.41 50.3557C157.439 50.1275 157.461 49.8408 157.474 49.4956L157.553 47.5061H160.69V52H159.832V48.2609H158.364L158.293 49.7882C158.276 50.1588 158.238 50.4825 158.179 50.7595C158.123 51.0365 158.04 51.2676 157.931 51.4529C157.821 51.6362 157.681 51.7737 157.509 51.8654C157.338 51.9551 157.129 52 156.883 52H156.602ZM163.749 52.0907C163.328 52.0907 162.96 51.9941 162.646 51.8011C162.332 51.608 162.088 51.3378 161.915 50.9906C161.741 50.6434 161.654 50.2377 161.654 49.7735C161.654 49.3074 161.741 48.8997 161.915 48.5506C162.088 48.2015 162.332 47.9303 162.646 47.7372C162.96 47.5441 163.328 47.4476 163.749 47.4476C164.17 47.4476 164.538 47.5441 164.852 47.7372C165.166 47.9303 165.41 48.2015 165.584 48.5506C165.757 48.8997 165.844 49.3074 165.844 49.7735C165.844 50.2377 165.757 50.6434 165.584 50.9906C165.41 51.3378 165.166 51.608 164.852 51.8011C164.538 51.9941 164.17 52.0907 163.749 52.0907ZM163.752 51.3563C164.025 51.3563 164.251 51.2842 164.431 51.1398C164.61 50.9955 164.743 50.8034 164.829 50.5635C164.917 50.3236 164.96 50.0593 164.96 49.7706C164.96 49.4839 164.917 49.2206 164.829 48.9807C164.743 48.7388 164.61 48.5447 164.431 48.3984C164.251 48.2522 164.025 48.179 163.752 48.179C163.477 48.179 163.249 48.2522 163.068 48.3984C162.888 48.5447 162.754 48.7388 162.667 48.9807C162.581 49.2206 162.538 49.4839 162.538 49.7706C162.538 50.0593 162.581 50.3236 162.667 50.5635C162.754 50.8034 162.888 50.9955 163.068 51.1398C163.249 51.2842 163.477 51.3563 163.752 51.3563ZM166.82 52V47.5061H168.684C169.191 47.5061 169.593 47.6144 169.89 47.8309C170.186 48.0454 170.334 48.337 170.334 48.7056C170.334 48.969 170.25 49.1777 170.083 49.3318C169.915 49.4858 169.693 49.5892 169.416 49.6419C169.616 49.6653 169.801 49.7257 169.969 49.8233C170.136 49.9188 170.271 50.0476 170.372 50.2095C170.476 50.3714 170.527 50.5645 170.527 50.7888C170.527 51.0267 170.466 51.2374 170.343 51.4207C170.22 51.6021 170.042 51.7445 169.808 51.8479C169.576 51.9493 169.296 52 168.968 52H166.82ZM167.643 51.2686H168.968C169.184 51.2686 169.354 51.2169 169.477 51.1135C169.6 51.0101 169.661 50.8697 169.661 50.6922C169.661 50.4835 169.6 50.3197 169.477 50.2007C169.354 50.0798 169.184 50.0193 168.968 50.0193H167.643V51.2686ZM167.643 49.3786H168.693C168.857 49.3786 168.997 49.3552 169.114 49.3083C169.233 49.2615 169.324 49.1952 169.386 49.1094C169.451 49.0216 169.483 48.9182 169.483 48.7993C169.483 48.6257 169.412 48.4901 169.269 48.3926C169.127 48.2951 168.932 48.2463 168.684 48.2463H167.643V49.3786ZM172.344 50.7741L174.325 47.5061H175.267V52H174.41V48.7291L172.438 52H171.487V47.5061H172.344V50.7741ZM177.3 50.7741L179.281 47.5061H180.223V52H179.366V48.7291L177.394 52H176.443V47.5061H177.3V50.7741ZM178.907 45.9847H179.626C179.626 46.3144 179.509 46.5826 179.275 46.7893C179.043 46.9941 178.729 47.0965 178.333 47.0965C177.939 47.0965 177.626 46.9941 177.394 46.7893C177.162 46.5826 177.046 46.3144 177.046 45.9847H177.763C177.763 46.131 177.806 46.2607 177.891 46.3739C177.977 46.485 178.124 46.5406 178.333 46.5406C178.538 46.5406 178.684 46.485 178.772 46.3739C178.862 46.2627 178.907 46.133 178.907 45.9847Z" fill="black"/>
</svg>
